<svg xmlns="http://www.w3.org/2000/svg" width="170" height="41" fill="none"><path fill="#fff" d="M52.6 29V11.546h11.556v3.042h-7.867v4.16h7.1v3.042h-7.1V29H52.6Zm13.97 0V15.91h3.63V29h-3.63Zm1.824-14.778c-.54 0-1.003-.18-1.39-.537-.38-.364-.57-.799-.57-1.304 0-.5.19-.93.57-1.287.387-.364.85-.546 1.39-.546.54 0 1 .182 1.38.546.387.358.58.787.58 1.287 0 .505-.193.94-.58 1.304-.38.358-.84.537-1.38.537Zm8.346 7.21V29h-3.631V15.91h3.46v2.309h.154a3.652 3.652 0 0 1 1.457-1.807c.682-.449 1.509-.673 2.48-.673.91 0 1.702.198 2.378.596.676.398 1.202.966 1.577 1.705.375.733.562 1.608.562 2.625V29h-3.63v-7.688c.005-.8-.2-1.426-.614-1.875-.415-.454-.986-.681-1.713-.681-.489 0-.92.105-1.296.315-.369.21-.659.517-.869.92-.205.398-.31.878-.315 1.44Zm16.123 7.781a4.942 4.942 0 0 1-2.702-.767c-.801-.517-1.438-1.276-1.91-2.276-.465-1.005-.698-2.238-.698-3.698 0-1.5.241-2.748.724-3.742.483-1 1.125-1.747 1.927-2.241.806-.5 1.69-.75 2.65-.75.733 0 1.344.125 1.832.375.495.244.892.55 1.194.92.306.364.54.722.699 1.074h.11v-6.563h3.622V29h-3.58v-2.097h-.152c-.171.364-.412.725-.725 1.083-.307.352-.707.645-1.202.878-.488.233-1.085.35-1.79.35Zm1.15-2.89c.585 0 1.08-.158 1.483-.476.41-.324.722-.776.938-1.356.221-.58.332-1.258.332-2.037 0-.778-.108-1.454-.324-2.028-.216-.574-.528-1.017-.937-1.33-.41-.312-.907-.468-1.492-.468-.597 0-1.1.162-1.508.486-.41.323-.72.772-.93 1.346-.21.574-.315 1.239-.315 1.994 0 .762.105 1.435.316 2.02.216.58.525 1.035.929 1.364.409.324.912.486 1.508.486ZM110.26 15.91v2.727h-7.884V15.91h7.884Zm-6.094-3.136h3.631v12.204c0 .335.051.597.153.784.102.182.244.31.426.384.188.074.403.11.648.11.17 0 .341-.014.511-.042l.392-.077.571 2.702c-.182.057-.437.122-.767.196-.329.08-.73.128-1.202.145-.875.034-1.642-.082-2.301-.35a3.209 3.209 0 0 1-1.525-1.244c-.364-.562-.543-1.273-.537-2.13V12.772ZM112.625 29V15.91h3.52v2.283h.136c.239-.812.639-1.426 1.202-1.84.562-.421 1.21-.631 1.943-.631.182 0 .378.011.588.034.21.022.395.054.554.093v3.222a4.742 4.742 0 0 0-.708-.136 6.339 6.339 0 0 0-.826-.06c-.534 0-1.012.116-1.432.35a2.577 2.577 0 0 0-.989.954c-.238.41-.358.88-.358 1.415V29h-3.63Zm15.176.256c-1.346 0-2.505-.273-3.477-.819a5.604 5.604 0 0 1-2.233-2.335c-.522-1.011-.784-2.207-.784-3.588 0-1.346.262-2.528.784-3.545a5.798 5.798 0 0 1 2.208-2.378c.954-.568 2.074-.852 3.358-.852.863 0 1.667.139 2.412.417.75.273 1.403.685 1.96 1.236.562.551 1 1.244 1.312 2.08.313.83.469 1.8.469 2.914v.998h-11.054v-2.25h7.636c0-.523-.113-.986-.341-1.39a2.436 2.436 0 0 0-.946-.946c-.397-.233-.86-.35-1.389-.35-.551 0-1.04.129-1.466.384-.42.25-.75.588-.988 1.015-.239.42-.361.889-.367 1.406v2.139c0 .648.12 1.207.358 1.679.245.472.588.835 1.031 1.09.444.257.969.384 1.577.384.404 0 .773-.056 1.108-.17.335-.114.622-.284.861-.511.239-.228.42-.506.545-.836l3.358.222a4.584 4.584 0 0 1-1.048 2.114c-.523.596-1.199 1.062-2.028 1.397-.824.33-1.776.495-2.856.495Zm12.009-7.824V29h-3.631V15.91h3.461v2.309h.153a3.657 3.657 0 0 1 1.457-1.807c.682-.449 1.509-.673 2.48-.673.91 0 1.702.198 2.378.596a4.057 4.057 0 0 1 1.577 1.705c.375.733.563 1.608.563 2.625V29h-3.631v-7.688c.006-.8-.199-1.426-.614-1.875-.415-.454-.986-.681-1.713-.681-.489 0-.92.105-1.295.315a2.2 2.2 0 0 0-.87.92c-.204.398-.309.878-.315 1.44Zm16.123 7.781a4.944 4.944 0 0 1-2.702-.767c-.801-.517-1.437-1.276-1.909-2.276-.466-1.005-.699-2.238-.699-3.698 0-1.5.242-2.748.725-3.742.483-1 1.125-1.747 1.926-2.241.807-.5 1.69-.75 2.65-.75.733 0 1.344.125 1.833.375.494.244.892.55 1.193.92.307.364.54.722.699 1.074h.111v-6.563h3.622V29h-3.58v-2.097h-.153a4.686 4.686 0 0 1-.725 1.083c-.306.352-.707.645-1.201.878-.489.233-1.086.35-1.79.35Zm1.15-2.89c.586 0 1.08-.158 1.483-.476.409-.324.722-.776.938-1.356.221-.58.332-1.258.332-2.037 0-.778-.108-1.454-.324-2.028-.215-.574-.528-1.017-.937-1.33-.409-.312-.906-.468-1.492-.468-.596 0-1.099.162-1.508.486-.409.323-.719.772-.929 1.346-.21.574-.315 1.239-.315 1.994 0 .762.105 1.435.315 2.02.216.58.526 1.035.929 1.364.409.324.912.486 1.508.486Z"/><circle cx="21" cy="20" r="16" fill="#000"/><path fill="#A8FF35" fill-rule="evenodd" d="M20.684 40c11.045 0 20-8.954 20-20s-8.955-20-20-20c-11.046 0-20 8.954-20 20s8.954 20 20 20Zm6.239-30.683c.304-1.079-.743-1.717-1.7-1.036L11.878 17.79c-1.037.738-.874 2.21.245 2.21h3.514v-.027h6.85l-5.581 1.97-2.46 8.74c-.304 1.079.742 1.717 1.699 1.036L29.49 22.21c1.036-.738.873-2.21-.245-2.21h-5.33l3.007-10.683Z" clip-rule="evenodd"/></svg>